<?xml version="1.0"?><svg xmlns="http://www.w3.org/2000/svg"  viewBox="0 0 24 24" width="24px" height="24px">    <path d="M 11.033203 3.2207031 C 10.958186 3.2183086 10.882062 3.2229062 10.804688 3.2382812 L 2.8046875 4.8398438 C 2.3366875 4.9338437 2 5.3433125 2 5.8203125 L 2 18.179688 C 2 18.656688 2.3366875 19.066156 2.8046875 19.160156 L 10.804688 20.761719 C 11.423687 20.885719 12 20.410297 12 19.779297 L 12 4.2207031 C 12 3.6685781 11.558326 3.2374648 11.033203 3.2207031 z M 14 5 L 14 7 L 19 7 C 19.552 7 20 7.448 20 8 C 20 8.552 19.552 9 19 9 L 14 9 L 14 11 L 19 11 C 19.552 11 20 11.448 20 12 C 20 12.552 19.552 13 19 13 L 14 13 L 14 15 L 19 15 C 19.552 15 20 15.448 20 16 C 20 16.552 19.552 17 19 17 L 14 17 L 14 19 L 21 19 C 21.552 19 22 18.552 22 18 L 22 6 C 22 5.448 21.552 5 21 5 L 14 5 z M 4.1855469 8.2949219 C 4.5555469 8.2949219 4.8689219 8.5675937 4.9199219 8.9335938 C 5.0769219 10.072594 5.3865781 12.356141 5.3925781 12.619141 L 5.4199219 12.619141 C 5.4259219 12.440141 5.7771875 10.422031 5.9921875 9.2070312 C 6.0861875 8.6780313 6.5450313 8.2949219 7.0820312 8.2949219 C 7.6250313 8.2949219 8.0877812 8.6866563 8.1757812 9.2226562 C 8.3677813 10.397656 8.6763594 12.298203 8.6933594 12.533203 L 8.7109375 12.533203 C 8.7169375 12.332203 9.0267344 10.017484 9.1777344 8.8964844 C 9.2237344 8.5514844 9.5172344 8.2949219 9.8652344 8.2949219 C 10.300234 8.2949219 10.630781 8.6891875 10.550781 9.1171875 L 9.4414062 15.050781 C 9.3714063 15.429781 9.0402969 15.705078 8.6542969 15.705078 C 8.2752969 15.705078 7.9490937 15.441313 7.8710938 15.070312 C 7.6090938 13.822313 7.0558281 11.147062 7.0488281 10.914062 L 7.03125 10.914062 C 7.01825 11.167063 6.4536406 13.796828 6.1816406 15.048828 C 6.0986406 15.432828 5.7582344 15.705078 5.3652344 15.705078 C 4.9632344 15.705078 4.6189219 15.417484 4.5449219 15.021484 L 3.4570312 9.171875 C 3.3730312 8.716875 3.7225469 8.2949219 4.1855469 8.2949219 z"/></svg>